# xmcd
#
# Track frame offsets:
#	150
#	14719
#	30215
#	44310
#	54673
#	71555
#	88642
#	104279
#	113811
#	128433
#	141607
#	151427
#	166268
#	182875
#	196557
#	214371
#	233207
#	249990
#	264196
#	280299
#
# Disc length: 3894 seconds
#
# Revision: 0
# Processed by: cddbd v1.5.1PL2 Copyright (c) Steve Scherf et al.
# Submitted via: EasyCDDAExtractor 9.0.0.1
#
DISCID=160f3414
DTITLE=country - compil
DYEAR=1900
DGENRE=Country
TTITLE0=Bump Bounce Boogie
TTITLE1=You Can't Count Me Out Yet
TTITLE2=Larry Gatlin - Boogie and Beetho
TTITLE3=Hello Mary Lou
TTITLE4=Party For Two' (Featuring Mark McGrath)
TTITLE5=alligator rock
TTITLE6=Usa Today
TTITLE7=Freddie Said
TTITLE8=Amigo
TTITLE9=Love Me, Love Me
TTITLE10=Return To Sender
TTITLE11=address unknow
TTITLE12=Hey Baby (If You Be My Girl)
TTITLE13=Hey Good Lookin'
TTITLE14=freack
TTITLE15=island in the stream
TTITLE16=The Dean Brothers
TTITLE17=pot of gold
TTITLE18=Gone And Done It
TTITLE19=Little Bird
EXTD=
EXTT0=
EXTT1=
EXTT2=
EXTT3=
EXTT4=
EXTT5=
EXTT6=
EXTT7=
EXTT8=
EXTT9=
EXTT10=
EXTT11=
EXTT12=
EXTT13=
EXTT14=
EXTT15=
EXTT16=
EXTT17=
EXTT18=
EXTT19=
PLAYORDER=
